<?xml version="1.0" encoding="iso-8859-1"?>
<!-- Generator: Adobe Illustrator 19.0.0, SVG Export Plug-In . SVG Version: 6.00 Build 0)  -->
<svg version="1.1" id="Capa_1" xmlns="http://www.w3.org/2000/svg" xmlns:xlink="http://www.w3.org/1999/xlink" x="0px" y="0px"
	 viewBox="0 0 511.999 511.999" style="enable-background:new 0 0 511.999 511.999;" xml:space="preserve">
<path style="fill:#7DE2E2;" d="M23.388,293.124c19.073,26.512,61.558,65.625,136.717,40.95c0.101-0.809-26.264-66.506-26.264-66.506
	l-99.715,3.556C23.031,271.52,16.905,284.112,23.388,293.124z"/>
<path style="fill:#66D3D0;" d="M133.841,267.567L40.9,270.882c5.431,11.88,26.963,52.614,73.743,71.023
	c13.603-0.01,28.719-2.334,45.462-7.831C160.206,333.265,133.841,267.567,133.841,267.567z"/>
<path style="fill:#A0F0F2;" d="M1.121,216.989c12.737,38.968,48.127,93.069,145.812,66.599
	c-0.058-1.631-18.239-74.548-18.239-74.548L26.599,188.422C9.973,185.065-4.149,200.868,1.121,216.989z"/>
<path style="fill:#7DE2E2;" d="M81.47,289.412c17.913,2.557,39.484,1.217,65.462-5.822c-0.058-1.631-18.239-74.548-18.239-74.548
	L26.598,188.424C26.598,188.423,31.402,257.709,81.47,289.412z"/>
<path style="fill:#BDFAFF;" d="M143.04,171.478c0,0-58.247-9.647-105.566-38.473c-13.726-8.362-30.663,4.306-26.678,19.876
	c10.864,42.442,42.021,98.7,129.354,92.191C140.431,242.838,143.04,171.478,143.04,171.478z"/>
<path style="fill:#7DE2E2;" d="M488.612,293.124c-19.073,26.512-61.558,65.625-136.717,40.95
	c-0.101-0.809,26.264-66.506,26.264-66.506l99.715,3.556C488.968,271.52,495.094,284.112,488.612,293.124z"/>
<path style="fill:#66D3D0;" d="M378.159,267.567l92.941,3.315c-5.431,11.88-26.963,52.614-73.743,71.023
	c-13.603-0.01-28.719-2.334-45.462-7.831C351.793,333.265,378.159,267.567,378.159,267.567z"/>
<path style="fill:#A0F0F2;" d="M510.879,216.989c-12.737,38.968-48.127,93.069-145.812,66.599
	c0.058-1.631,18.239-74.548,18.239-74.548L485.4,188.422C502.027,185.065,516.148,200.868,510.879,216.989z"/>
<path style="fill:#7DE2E2;" d="M430.53,289.412c-17.913,2.557-39.484,1.217-65.462-5.822c0.058-1.631,18.239-74.548,18.239-74.548
	l102.094-20.618C485.401,188.423,480.598,257.709,430.53,289.412z"/>
<path style="fill:#BDFAFF;" d="M368.959,171.478c0,0,58.247-9.647,105.566-38.473c13.726-8.362,30.663,4.306,26.678,19.876
	c-10.864,42.442-42.021,98.7-129.354,92.191C371.569,242.838,368.959,171.478,368.959,171.478z"/>
<path style="fill:#FF737D;" d="M390.312,143.593c-31.223-34.202-82.162-38.384-119.326-13.978c-9.133,5.998-20.84,5.998-29.972,0
	c-37.164-24.406-88.102-20.225-119.326,13.978c-90.719,99.373,42.969,204.612,105.264,245.609c17.624,11.599,40.471,11.599,58.095,0
	C347.343,348.205,481.029,242.966,390.312,143.593z"/>
<path style="fill:#FF5555;" d="M226.952,389.202c17.624,11.599,40.471,11.599,58.095,0c8.076-5.315,17.352-11.711,27.182-19.032
	c-25.094-4.695-49.977-13.634-73.681-28.266c-119.409-73.708-43.92-178.952-8.523-218.489
	c-35.719-17.131-80.095-10.761-108.339,20.177C30.97,242.966,164.657,348.205,226.952,389.202z"/>
<g>
	<path style="fill:#57565C;" d="M339.091,258.841c-4.268,0-7.726-3.459-7.726-7.726v-12.827c0-4.267,3.458-7.726,7.726-7.726
		c4.268,0,7.726,3.459,7.726,7.726v12.827C346.817,255.382,343.358,258.841,339.091,258.841z"/>
	<path style="fill:#57565C;" d="M172.908,258.841c-4.268,0-7.726-3.459-7.726-7.726v-12.827c0-4.267,3.458-7.726,7.726-7.726
		c4.268,0,7.726,3.459,7.726,7.726v12.827C180.635,255.382,177.176,258.841,172.908,258.841z"/>
	<path style="fill:#57565C;" d="M256,266.931c-10,0-20-3.236-28.344-9.708c-3.372-2.616-3.985-7.469-1.369-10.841
		c2.614-3.373,7.469-3.986,10.84-1.37c11.113,8.62,26.634,8.62,37.747,0c3.37-2.616,8.225-2.003,10.84,1.37
		c2.616,3.372,2.003,8.225-1.369,10.841C276,263.695,266,266.931,256,266.931z"/>
</g>
</svg>
